<?xml version="1.0" encoding="utf-8" ?><svg xmlns="http://www.w3.org/2000/svg" xmlns:xlink="http://www.w3.org/1999/xlink" width="1024" height="1024" viewBox="0 0 1024 1024"><path fill="#EDF2F4" d="M0 0L1024 0L1024 1024L0 1024L0 0Z"/><path fill="#2B2D42" d="M187.604 93.7363C152.099 85.0557 172.226 38.6192 200.286 57.1162C205.724 60.701 208.932 70.2311 207.754 76.5166C206.913 81.0015 205.388 83.8857 202.415 87.3299C204.376 93.4206 206.205 99.8721 208.046 106.025C230.855 100.605 261.995 98.8974 284.058 107.266C314.411 101.821 341.715 107.86 368.206 122.939C386.57 133.391 382.124 132.235 378.825 152.513C377.654 159.714 375.476 168.664 375.028 175.788L374.987 176.493C388.488 202.755 390.57 221.127 396.133 249.127C403.624 251.146 416.474 252.312 422.885 255.575C424.219 256.254 424.771 257.014 425.175 258.441C427.979 268.357 407.714 303.99 402.388 313.409C397.716 321.671 389.979 335.088 382.799 341.179C375.366 347.484 341.187 354.664 330.049 357.764C331.422 364.623 332.756 371.675 334.328 378.474C345.388 374.524 352.247 372.41 364.261 372.743C391.89 373.509 413.459 390.724 425.095 414.94C445.798 410.181 468.581 407.188 489.19 402.205C510.859 396.965 537.184 387.243 558.138 378.992C562.09 372.469 566.741 369.488 573.381 366.286C575.994 365.629 581.108 363.645 583.833 362.682C590.661 360.353 597.503 356.749 604.119 354.773C605.68 354.701 608.138 353.615 609.532 352.896C619.445 348.196 630.068 344.446 633.552 358.509C631.555 367.944 627.073 373.471 618.08 377.257L617.849 378.448C616.502 379.12 615.083 379.778 613.813 380.575C609.421 381.921 597.315 389.211 593.084 391.694C590.709 393.315 586.155 396.97 586.245 399.62C586.642 411.286 593.331 429.488 594.79 440.918C569.88 452.303 542.328 459.712 515.787 466.1C489.589 472.405 462.879 475.392 436.335 479.673C434.515 479.966 432.414 481.487 430.891 482.528C434.571 493.204 440.682 504.917 444.51 516.052C458.884 557.857 477.159 615.614 475.42 659.74C467.864 669 442.08 675.136 430.315 678.456C451.209 743.314 463.671 796.142 460.036 864.504C465.644 864.418 473.256 864.297 478.807 864.941C497.314 867.091 517.033 876.307 530.976 889.402C538.834 896.782 557.878 919.46 559.212 930.527C559.323 931.446 557.65 934.23 556.807 934.61C549.856 937.749 537.711 941.164 530.504 943.32L501.955 952.089C496.988 953.632 488.493 956.85 483.641 956.484C475.425 955.864 466.769 954.6 458.548 953.687L363.515 942.335L364.052 943.477C365.516 946.627 367.884 951.044 366.689 954.33C365.529 955.242 364.336 955.872 362.995 956.483C351.33 961.798 338.435 965.481 326.331 969.737C318.082 972.638 301.979 979.42 294.105 980.3C289.778 980.783 148.321 960.12 142.742 958.028C141.948 957.199 140.857 955.988 140.699 954.797C136.194 920.8 143.732 927.762 168.048 920.972L168.937 920.72C162.481 904.508 172.679 879.758 190.927 877.878C191.799 874.458 192.996 870.799 194.055 867.41C203.25 837.958 209.206 807.001 211.688 776.173C202.323 769.364 191.815 760.419 182.67 753.11L134.625 714.789C132.019 718.621 129.782 721.042 129.45 725.919C129.217 729.322 129.076 733.898 125.851 735.645C124.191 735.603 123.541 735.303 122.211 734.311C114.349 728.446 113.419 718.866 112.408 709.89C102.005 710.704 101.221 708.392 98.23 699.836C96.5365 699.018 94.8367 699.994 92.8041 700.122C86.0731 700.546 82.6841 694.103 82.5474 688.042C80.5907 685.463 62.4905 696.454 69.9349 665.112L67.0383 663.442C56.7808 657.418 47.1435 649.862 44.1826 637.771C40.6386 623.267 49.1773 607.656 64.2746 604.63C72.7624 602.929 78.753 605.378 85.7018 609.828C92.8189 574.594 104.134 538.537 120.251 506.287C125.699 495.385 132.248 485.087 138.638 474.711C118.925 443.456 128.064 403.024 166.54 393.739C190.772 387.891 206.094 391.877 227.172 404.001C230.28 400.801 232.878 398.887 236.566 396.471C234.323 389.907 231.592 382.95 229.16 376.414C205.415 376.677 178.93 380.019 154.984 379.434C144.654 372.053 137.625 353.604 132.872 341.947C114.171 339.722 101.567 330.993 93.9447 313.527C83.5731 289.761 82.1086 258.564 109.639 246.653C108.105 227.82 110.941 208.681 117.392 190.985C131.189 153.138 157.686 128.078 193.397 111.123C191.231 105.449 188.901 99.6557 187.604 93.7363Z"/><path fill="#EDF2F4" d="M278.504 387.735C307.222 376.121 335.521 389.672 358.473 407.231C393.62 434.119 414.919 473.578 430.9 514.032C447.301 556.783 462.455 607.904 463.937 653.996C453.432 659.422 439.308 663.845 427.77 666.773C376.323 679.825 322.601 678.677 270.08 674.42C256.294 673.303 239.71 671.421 226.149 668.319C224.087 667.847 221.538 666.325 220.724 664.231C218.594 658.756 218.609 651.046 218.184 645.226C215.974 615.021 217.839 585.121 221.755 555.126C223.09 544.903 224.272 534.263 226.302 524.122C240.378 519.31 250.397 511.875 256.944 498.292C267.921 475.517 261.281 454.241 251.423 432.884C246.4 425.442 241.721 418.307 235.535 411.737C244.89 405 267.576 388.649 278.504 387.735Z"/><path fill="#B1B1B1" d="M235.535 411.737C244.89 405 267.576 388.649 278.504 387.735C264.111 398.422 251.394 414.071 251.423 432.884C246.4 425.442 241.721 418.307 235.535 411.737Z"/><path fill="#2B2D42" d="M334.524 439.885C365.588 434.95 394.793 456.068 399.838 487.115C404.883 518.161 383.868 547.44 352.84 552.594C321.656 557.775 292.199 536.631 287.129 505.43C282.058 474.228 303.305 444.846 334.524 439.885Z"/><path fill="#586883" d="M336.295 446.166C376.343 441.973 409.558 490.76 385.509 524.868C378.131 535.334 365.984 540.539 353.616 542.374C286.02 549.694 274.46 455.475 336.295 446.166Z"/><path fill="#2B2D42" d="M335.197 454.519C340.926 452.11 343.129 450.76 348.637 454.675C355.501 454.691 362.575 459.714 367.77 463.734C370.567 466.728 377.745 473.846 378.305 477.577C380.508 481.794 383.442 491.739 384.545 496.682C391.082 503.871 389.434 516.174 377.92 516.654L381.042 517.108C380.501 524.759 362.15 536.364 355.716 534.459C350.362 536.001 348.901 536.231 343.285 535.449L342.693 535.36C333.331 536.064 319.731 526.988 313.008 521.09L312.35 520.594C309.025 518.138 303.259 509.731 305.298 505.634C303.833 503.398 303.258 497.843 303.025 495.054C301.628 478.319 317.205 455.045 335.197 454.519Z"/><path fill="#DDD5D1" d="M335.197 454.519C340.926 452.11 343.129 450.76 348.637 454.675C355.501 454.691 362.575 459.714 367.77 463.734C361.094 468.872 350.68 476.584 345.242 482.792C342.285 480.546 332.935 472.523 329.539 473.104C329.123 473.175 327.309 473.704 326.777 473.871C322.757 472.132 319.085 467.195 314.457 469.648C307.97 473.085 305.258 481.119 312.503 485.39L316.34 487.966C317.05 490.387 317.959 492.166 320.004 493.695C328.799 500.268 338.562 508.372 347.706 514.275C337.671 518.192 334.001 527.749 342.693 535.36C333.331 536.064 319.731 526.988 313.008 521.09L312.35 520.594C309.025 518.138 303.259 509.731 305.298 505.634C303.833 503.398 303.258 497.843 303.025 495.054C301.628 478.319 317.205 455.045 335.197 454.519Z"/><path fill="#2B2D42" d="M305.298 505.634C310.518 491.905 323.155 496.943 325.672 509.619C323.797 517.151 321.203 520.895 313.008 521.09L312.35 520.594C309.025 518.138 303.259 509.731 305.298 505.634Z"/><path fill="#586883" d="M313.563 501.95C322.047 501.618 323.798 511.469 317.259 516.216C307.694 516.072 307.631 506.754 313.563 501.95Z"/><path fill="#2B2D42" d="M335.197 454.519C340.926 452.11 343.129 450.76 348.637 454.675C362.243 479.619 318.265 473.058 335.197 454.519Z"/><path fill="#586883" d="M341.583 455.504C348.223 456.051 349.156 465.416 341.981 467.867C334.891 465.212 334.287 458.683 341.583 455.504Z"/><path fill="#DDD5D1" d="M378.305 477.577C380.508 481.794 383.442 491.739 384.545 496.682C391.082 503.871 389.434 516.174 377.92 516.654L381.042 517.108C380.501 524.759 362.15 536.364 355.716 534.459C359.704 531.822 360.551 529.05 361.753 524.823C359.819 517.494 357.152 514.517 349.399 513.974C359.431 504.237 369.937 489.059 378.305 477.577Z"/><path fill="#2B2D42" d="M377.92 516.654C366.541 511.231 370.579 492.744 384.545 496.682C391.082 503.871 389.434 516.174 377.92 516.654Z"/><path fill="#586883" d="M378.665 499.645C386.525 500.765 385.626 507.393 381.872 512.554C373.641 513.075 375.846 504.158 378.665 499.645Z"/><path fill="#586883" d="M312.503 485.39C313.569 482.289 313.196 476.7 316.18 474.412C318.419 472.695 322.748 474.825 324.114 477.065C323.972 478.454 318.238 484.452 316.34 487.966L312.503 485.39Z"/><path fill="#8D99AE" d="M369.057 468.463C370.353 469.225 373.712 472.963 374.958 474.271C367.559 484.448 356.209 500.074 347.303 508.613C342.862 506.073 334.749 499.42 330.523 496.107C327.182 493.482 324.922 491.545 321.838 488.626C324.246 484.622 326.852 482.022 329.526 477.193C335.471 480.528 340.44 485.38 346.999 488.725C354.392 479.909 360.123 475.488 369.057 468.463Z"/><path fill="#586883" d="M349.71 517.892C358.418 518.793 359.9 527.923 350.905 531.684C338.875 531.517 341.635 521.816 349.71 517.892Z"/><path fill="#2B2D42" d="M399.545 586.835C400.215 586.801 400.87 586.792 401.539 586.87C403.1 587.05 404.256 587.514 405.208 588.855C406.306 590.4 412.646 645.67 411.814 648.392C411.38 649.809 409.911 651.111 408.485 651.441C407.236 651.729 405.855 651.532 404.824 650.742C400.702 647.581 397.733 613.651 397.271 606.626C378.278 630.149 384.474 632.487 361.239 608.921C361.751 612.942 362.182 617.009 362.637 621.04C363.429 627.483 368.748 650.437 362.282 653.578C357.373 653.869 355.985 650.638 355.207 646.139C353.052 633.673 351.883 620.648 350.098 608.122C349.409 603.288 346.805 592.346 350.489 589.27C356.619 587.245 363.817 596.72 368.193 600.579C371.691 603.664 377.263 608.562 379.827 612.064C385.758 605.302 393.636 591.714 399.545 586.835Z"/><path fill="#2B2D42" d="M315.724 589.041C316.463 589 317.203 588.959 317.944 588.961C320.179 588.966 321.943 589.701 323.427 591.392C326.473 594.863 345.882 646.502 345.279 649.91C345.051 651.194 344.571 651.845 343.442 652.458C342.081 653.197 340.002 653.122 338.627 652.481C333.929 650.286 331.509 640.727 329.767 636.164C326.146 635.705 322.274 635.413 318.62 635.077C313.434 634.707 308.548 634.484 303.364 634.299C300.913 639.072 296.934 649.286 291.515 650.124C283.607 648.63 288.93 637.911 291.444 634.237C297.351 625.606 309.275 594.426 315.724 589.041Z"/><path fill="#EDF2F4" d="M317.886 604.355C319.84 606.591 324.879 622.05 325.975 625.616L318.623 625.086L308.337 624.459C310.997 617.511 314.427 610.926 317.886 604.355Z"/><path fill="#2B2D42" d="M242.11 580.491C250.142 581.86 258.252 602.613 261.899 609.813C266.883 605.391 284.642 587.224 287.48 587.149C307.867 586.614 274.291 612.619 272.537 614.162L265.673 620.088C264.534 626.75 262.957 644.348 259.851 648.971C255.554 651.981 252.284 648.19 252.271 644.113C252.246 636.145 254.036 626.647 255.309 618.873C251.743 613.049 237.24 588.682 238.336 583.276C239.456 581.544 240.154 581.432 242.11 580.491Z"/><path fill="#2B2D42" d="M416.851 584.912C418.155 584.969 419.896 585.071 420.942 585.935C424.401 588.791 429.831 631.053 430.631 638.354C435.014 637.617 449.575 633.029 453.267 636.885C455.682 639.409 453.945 643.324 451.497 645.718C443.813 647.233 435.159 648.423 427.317 648.797C420.158 649.37 419.463 636.263 418.801 630.829C417.133 617.142 414.318 602.671 414.196 588.826C414.179 586.881 415.483 585.948 416.851 584.912Z"/><path fill="#EDF2F4" d="M159.057 212.674C210.924 147.207 284.372 83.6047 369.696 137.745C368.481 142.839 367.629 147.566 366.708 152.704C349.07 137.262 325.943 129.848 302.632 131.246C262.42 133.657 224.004 161.715 198.338 191.291C192.113 198.464 181.404 211.488 178.668 220.237C182.277 232.485 212.394 287.485 221.81 295.029C229.51 294.444 237.069 293.389 244.734 292.327C289.468 286.132 333.767 277.069 377.503 265.855C382.563 264.558 387.812 262.785 392.717 261.029C399.557 262.228 406.271 263.565 413.08 264.929C405.776 283.005 388.275 317.694 375.956 332.406C350.241 341.198 324.248 347.627 297.958 354.414C287.348 357.154 276.619 359.44 265.876 361.596C262.583 362.074 259.024 362.362 255.706 362.7C223.452 365.98 190.896 368.054 158.472 368.013C152.709 359.311 147.316 347.231 143.027 337.768C163.492 334.894 180.267 327.657 185.87 306.539C190.258 284.354 182.953 263.189 169.926 245.354C165.322 241.417 162.966 239.199 157.195 237.196C150.954 238.625 142.083 241.687 135.641 243.615C142.788 233.582 151.348 222.246 159.057 212.674Z"/><path fill="#B1B1B1" d="M185.87 306.539C196.999 321.33 223.245 340.686 240.276 348.785C247.026 351.995 260.379 357.656 265.876 361.596C262.583 362.074 259.024 362.362 255.706 362.7C223.452 365.98 190.896 368.054 158.472 368.013C152.709 359.311 147.316 347.231 143.027 337.768C163.492 334.894 180.267 327.657 185.87 306.539Z"/><path fill="#B1B1B1" d="M159.057 212.674C160.185 219.599 161.957 226.826 164.531 233.379C165.854 236.748 169.146 242.092 169.926 245.354C165.322 241.417 162.966 239.199 157.195 237.196C150.954 238.625 142.083 241.687 135.641 243.615C142.788 233.582 151.348 222.246 159.057 212.674Z"/><path fill="#2B2D42" d="M277.58 297.413C290.411 299.316 282.888 325.134 274.905 330.175C268.123 329.918 267.515 323.514 268.204 317.993C269.081 310.972 270.633 300.859 277.58 297.413Z"/><path fill="#B1B1B1" d="M277.604 302.731C281.276 306.343 277.487 320.315 274.474 324.055L273.499 322.723C272.513 317.102 275.054 307.795 277.604 302.731Z"/><path fill="#2B2D42" d="M311.578 289.476C320.099 289.145 319.175 298.58 318.062 304.538C316.86 310.969 314.942 317.593 309.321 321.509C297.859 321.696 303.285 302.885 305.791 296.767C307.284 293.123 308.308 291.646 311.578 289.476Z"/><path fill="#586883" d="M312.21 294.192C312.942 294.644 312.757 294.571 313.327 295.279C314.126 300.516 311.366 311.678 308.89 316.225C304.917 312.519 309.601 298.373 312.21 294.192Z"/><path fill="#2B2D42" d="M347.586 281.458C354.373 283.411 353.382 290.763 352.143 296.45C350.81 302.569 348.598 310.527 342.429 313.261C331.202 311.224 338.166 285.763 347.586 281.458Z"/><path fill="#8C8A85" d="M347.29 286.734C350.498 288.907 344.744 304.389 343.018 307.358L342.381 307.235C339.931 303.009 344.636 290.722 347.29 286.734Z"/><path fill="#2B2D42" d="M378.678 273.428C391.799 273.875 382.458 299.836 375.513 304.753C365.574 304.023 368.849 291.695 370.825 285.415C372.383 280.466 374.292 276.432 378.678 273.428Z"/><path fill="#6F6866" d="M378.731 278.731C382.958 281.799 376.891 296.382 374.787 300.141C371.172 296.063 376.272 282.944 378.731 278.731Z"/><path fill="#EDF2F4" d="M291.016 688.159C294.084 688.131 297.466 688.278 300.552 688.415C319.264 689.241 337.64 689.239 356.352 688.672C372.564 739.162 382.46 798.136 384.474 850.879C374.671 852.586 362.291 859.965 358.434 869.469C354.05 880.275 355.485 889.97 359.726 900.487C354.933 901.684 349.884 903.303 345.129 904.734L337.365 907.424C320.053 889.924 297.195 887.038 274.129 886.557C280.724 866.304 286.954 843.492 290.212 822.582C294.149 822.673 310.286 823.689 312.769 821.569C312.753 821.351 312.696 820.303 312.616 820C310.181 810.685 306.093 801.292 302.936 792.174C300.613 785.465 298.151 779.089 295.893 772.377C295.557 771.378 294.313 770.554 293.916 770.289C292.091 769.07 293.12 759.259 293.265 756.606C294.519 733.573 292.878 711.094 291.016 688.159Z"/><path fill="#6F6866" d="M301.76 142.693C318.125 140.126 341.762 147.352 354.784 157.314C341.572 154.48 333.2 156.705 328.721 170.614C323.111 188.037 326.666 208.456 334.464 224.662C340.853 237.938 354.387 252.179 370.43 244.453C377.536 240.969 380.089 230.622 382.228 223.366C383.158 232.909 383.87 242.167 384.544 251.72C361.839 258.912 335.845 263.953 312.394 268.988C288.787 274.325 264.657 277.607 240.723 281.147C236.363 281.791 232.04 282.305 227.712 283.164C215.834 269.458 199.55 235.807 191.26 219.817C215.492 182.424 256.2 147.779 301.76 142.693Z"/><path fill="#2B2D42" d="M272.527 170.634C276.757 170.524 281.921 172.377 285.589 174.891C308.601 190.663 318.245 234.26 304.309 258.273C301.557 263.015 296.2 265.019 291.036 265.999C285.736 265.834 279.808 264.655 275.422 261.072C254.48 243.966 243.969 201.636 259.216 178.179C262.204 173.581 267.373 171.433 272.527 170.634Z"/><path fill="#EDF2F4" d="M270.639 175.598C302.687 173.659 320.663 248.697 292.599 261.416C260.42 264.769 242.47 185.188 270.639 175.598Z"/><path fill="#8D99AE" d="M183.447 402.209C211.469 400.688 235.697 422.342 244.998 447.245C250.373 461.635 253.08 477.799 246.8 492.361C239.186 510.013 220.163 516.425 202.235 513.243C195.538 512.066 190.665 509.987 184.535 507.257C185.995 504.972 187.519 502.26 188.913 499.897C200.581 504.246 214.069 506.481 224.18 497.309C228.23 492.346 229.07 486.101 228.221 479.883C225.938 463.149 214.654 446.814 201.735 436.379C192.849 429.202 180.474 424.938 169.111 426.63C161.182 427.796 153.066 431.542 148.287 438.215C142.218 446.691 143.943 455.484 145.586 464.804C129.671 430.975 146.921 404.848 183.447 402.209Z"/><path fill="#EDF2F4" d="M155.456 677.296C157.879 678.371 167.552 687.022 170.408 689.221C209.836 719.579 250.123 746.995 291.964 773.904C294.964 785.908 302.497 802.749 307.045 814.605C303.885 813.336 299.762 810.913 296.67 809.214C285.111 802.895 273.265 796.878 263.277 788.289C251.796 778.417 239.749 768.966 227.839 759.599L164.522 710.437C156.342 704.085 148.34 697.4 140.161 691.163C145.235 685.056 148.974 681.727 155.456 677.296Z"/><path fill="#B1B1B1" d="M190.931 522.624C201.95 525.976 209.376 526.522 220.894 525.355C220.059 528.171 219.365 531.318 218.827 534.218C211.669 572.826 206.62 612.477 207.384 651.805C207.463 655.871 207.747 661.074 205.758 664.667C198.323 663.293 182.757 659.194 175.839 656.394C174.518 649.168 174.93 638.872 175.195 631.403C176.491 594.942 183.445 558.289 190.931 522.624Z"/><path fill="#EDF2F4" d="M159.852 147.511C179.498 126.393 212.8 113.439 241.201 113.039C248.8 112.931 254.637 113.392 261.983 113.623C259.475 114.591 256.971 115.573 254.48 116.585C212.993 133.44 180.838 167.864 152.684 201.65C148.764 207.397 141.382 215.846 136.917 221.765C132.224 227.985 126.088 236.745 121.151 242.368C120.942 239.408 120.999 236.728 121.135 233.768C122.658 200.699 135.251 170.02 159.852 147.511Z"/><path fill="#B1B1B1" d="M121.151 242.368C120.942 239.408 120.999 236.728 121.135 233.768C122.658 200.699 135.251 170.02 159.852 147.511C156.559 157.658 153.397 168.464 152.462 179.099C152.027 184.06 150.871 197.007 152.684 201.65C148.764 207.397 141.382 215.846 136.917 221.765C132.224 227.985 126.088 236.745 121.151 242.368Z"/><path fill="#8D99AE" d="M249.03 911.12C277.608 908.835 299.462 939.334 306.974 963.522C296.123 966.124 296.582 968.328 284.057 966.643C265.048 964.165 246.117 961.719 227.177 958.744C218.61 940.189 228.416 916.266 249.03 911.12Z"/><path fill="#8D99AE" d="M430.115 888.07C458.03 887.143 480.709 904.293 490.488 930.055C491.983 933.994 493.168 937.86 494.396 941.886C489.301 943.85 486.547 945.326 481.078 944.607C478.079 944.188 474.824 943.875 471.798 943.609C453.458 942.001 434.835 939.072 416.485 937.938C414.864 921.607 415.942 899.15 430.115 888.07Z"/><path fill="#8C8A85" d="M87.2805 626.282C102.526 636.972 123.821 639.652 142.003 638.326C141.825 647.167 142.02 650.456 146.786 658.138C131.368 664.567 120.272 678.427 115.468 694.285C114.473 697.57 113.842 703.731 111.956 705.673C98.3842 705.383 104.821 695.934 101.51 686.313L100.824 686.341C99.4524 688.465 99.3756 689.942 98.9047 692.423C97.4206 693.979 94.4757 696.86 91.9142 695.85C82.3144 692.063 89.7717 677.748 87.3871 673.26C82.4835 675.818 85.6741 683.131 78.7899 683.685C76.6732 683.856 75.9601 684.157 74.0453 682.759C70.0938 674.227 80.7047 651.606 83.349 642.492C85.1212 636.383 86.0681 632.583 87.2805 626.282Z"/><path fill="#EDF2F4" d="M342.562 160.092C372.157 157.84 391.096 232.479 364.687 241.476C335.247 245.543 316.898 173.419 342.562 160.092Z"/><path fill="#B1B1B1" d="M138.144 693.877C168.06 720.341 202.324 744.645 233.585 769.695L253.358 785.655C256.418 788.133 261.73 792.201 264.339 794.915C264.713 796.396 264.759 796.948 265.625 798.241C266.945 799.06 267.615 798.815 269.185 798.664L269.767 798.602C273.718 801.046 302.108 816.454 302.784 818.019C301.542 818.802 299.585 818.364 298 818.212C289.674 817.282 275.465 817.557 266.751 817.553C240.297 792.472 206.906 766.627 178.287 744.047L144.587 717.444C140.647 714.335 135.396 709.693 131.608 706.97C133.562 701.401 134.993 698.899 138.144 693.877Z"/><path fill="#8C8A85" d="M444.851 779.156C446.777 786.344 449.279 811.414 449.556 819.137C434.25 834.984 414.317 831.748 395.819 824.701L393.932 823.728C393.32 822.348 392.803 812.762 392.631 810.393C392.029 802.121 390.949 794.249 389.698 786.054C411.914 793.385 425.11 791.814 444.851 779.156Z"/><path fill="#8D99AE" d="M464.799 876.206C471.28 875.363 480.33 876.558 486.693 878.165C513.85 885.025 531.332 903.011 545.096 926.448C538.198 928.679 531.338 930.774 524.399 932.875C518.751 934.333 510.969 937.276 505.14 939.179C497.809 909.934 480.489 885.319 449.531 878.625C454.876 877.508 459.357 876.678 464.799 876.206Z"/><path fill="#8C8A85" d="M514.454 400.549C515.854 400.278 515.202 400.193 516.479 400.791C524.539 411.247 528.664 443.601 529.311 456.547C517.257 459.367 505.397 462.01 493.287 464.585L492.206 464.735C489.878 463.824 490.942 459.483 490.788 456.375C489.933 439.099 486.497 425.149 478.728 409.778C491.703 407.635 502.051 404.639 514.454 400.549Z"/><path fill="#6F6866" d="M178.44 432.538C193.604 435.238 202.368 443.016 211.427 455.181C205.647 463.068 199.743 472.366 194.173 479.785C190.963 484.599 188.478 489.112 185.656 494.152C171.07 487.929 160.456 480.706 148.815 470.199C151.665 465.916 154.621 462.048 157.716 457.953C163.568 450.09 174.542 439.956 178.44 432.538Z"/><path fill="#8C8A85" d="M157.716 457.953C162.096 459.811 191.231 477.061 194.173 479.785C190.963 484.599 188.478 489.112 185.656 494.152C171.07 487.929 160.456 480.706 148.815 470.199C151.665 465.916 154.621 462.048 157.716 457.953Z"/><path fill="#8C8A85" d="M219.197 802.168C221.458 803.442 224.253 805.555 226.969 807.057C237.234 812.731 245.151 814.004 256.49 814.912L264.816 821.901C270.076 822.113 276.458 821.981 281.803 821.996C280.847 828.393 278.735 837.499 277.147 843.802C275.325 844.813 273.348 846.056 271.539 847.135C253.87 855.351 227.175 848.56 213.037 835.998C214.855 824.953 217.212 813.281 219.197 802.168Z"/><path fill="#8C8A85" d="M435.293 733.417C436.747 735.017 442.753 766.555 443.544 770.795C429.352 784.273 409.583 786.41 391.676 779.603L388.313 778.018C385.979 766.992 384.407 756.489 381.747 745.268C400.865 750.778 419.997 745.605 435.293 733.417Z"/><path fill="#8D99AE" d="M277.76 898.679C284.247 897.549 293.511 899.423 299.771 900.875C325.201 906.772 340.06 926.585 352.894 947.967C347.875 949.941 341.788 951.914 336.62 953.713C330.793 955.79 324.805 957.66 318.914 959.566C312.752 942.406 300.116 921.616 285.208 911.09C278.846 906.598 273.651 903.914 266.784 900.336C270.44 899.707 274.088 899.202 277.76 898.679Z"/><path fill="#8C8A85" d="M211.073 843.232C227.14 857.022 256.454 862.686 275.034 850.892C272.15 860.992 268.596 873.562 264.541 883.165C251.82 894.549 225.608 889.187 213.434 879.459C209.63 876.419 206.886 875.362 202.33 873.824C205.436 863.424 208.351 853.781 211.073 843.232Z"/><path fill="#8C8A85" d="M550.916 386.976L551.837 387.211C560.987 397.289 569.344 428.625 570.156 443.039C560.018 446.741 549.497 450.045 539.204 453.296C538.201 453.561 537.534 453.691 536.51 453.867C535.486 452.477 535.22 443.9 534.927 441.443C533.083 425.943 527.8 412.043 520.339 398.35C531.161 394.934 540.382 391.276 550.916 386.976Z"/><path fill="#8C8A85" d="M621.367 353.542C623.084 353.555 626.135 353.92 626.684 355.264C631.585 368.299 610.5 375.835 601.217 380.915C591.321 386.143 573.941 396.89 584.101 409.82C588.274 415.131 589.29 427.808 591.586 435.069C588.551 436.209 579.68 440.306 577.19 439.571L576.713 437.889C573.257 416.931 568.291 402.701 556.355 385.145L561.383 383.55C564.033 379.649 564.928 377.795 569.051 375.014C576.538 369.966 587.147 366.625 595.691 363.417L621.367 353.542Z"/><path fill="#8D99AE" d="M127.208 253.108C137.179 249.465 147.176 246.465 157.143 242.954C178.957 255.746 190.611 305.561 167.513 321.356C163.433 320.366 157.615 318.205 153.647 316.627C160.562 294.422 150.961 260.683 127.208 253.108Z"/><path fill="#8C8A85" d="M108.171 547.279C124.629 560.24 134.708 566.07 155.367 569.704C152.04 579.759 150.819 589.256 147.975 598.931C146.885 600.008 146.932 599.652 144.956 599.806C125.8 599.261 112.337 592.397 97.1306 581.639C101.063 570.995 103.935 558.702 108.171 547.279Z"/><path fill="#8C8A85" d="M125.041 508.25C126.676 509.109 132.033 514.936 134.192 516.545C144.382 524.141 155.431 529.917 167.347 534.069C163.253 543.788 160.516 555.316 156.535 564.448C155.347 565.151 155.175 564.77 153.385 564.452C136.625 560.427 122.451 553.492 110.013 541.266C114.492 530.226 119.368 518.693 125.041 508.25Z"/><path fill="#8C8A85" d="M473.33 411.136C473.884 411.018 474.275 411.143 474.888 411.217C476.756 413.579 477.575 417.364 478.44 420.28C483.023 435.736 483.843 449.917 484.03 465.797C475.745 467.738 461.39 469.639 452.992 470.788C451.873 471.016 452.232 470.956 451.054 470.818C450.456 469.711 451.694 461.905 451.799 459.756C452.561 444.206 448.801 431.02 443.301 416.719C453.488 415.101 463.223 413.183 473.33 411.136Z"/><path fill="#41464E" d="M354.401 384.213C395.831 379.873 418.544 413.215 424.147 450.733C424.532 453.307 425.711 467.692 424.775 469.313L423.84 468.302C407.286 439.313 386.736 412.663 359.35 392.688C357.468 391.315 351.216 387.039 350.364 385.222C351.605 384.093 352.301 384.426 354.401 384.213Z"/><path fill="#2B2D42" d="M186.347 888.951C212.208 877.918 211.511 898.819 224.513 911.257C221.013 916.94 219.235 920.611 216.841 926.856C206.466 933.02 199.718 934.802 187.992 931.068C170.392 923.976 169.961 898.773 186.347 888.951Z"/><path fill="#8D99AE" d="M186.347 888.951C212.208 877.918 211.511 898.819 224.513 911.257C221.013 916.94 219.235 920.611 216.841 926.856C206.466 933.02 199.718 934.802 187.992 931.068L189.099 930.398L194.069 931.845C200.802 930.059 204.543 928.204 207.953 921.438C213.316 910.8 209.877 895.25 198.792 889.707C194.547 887.584 190.826 888.275 186.517 889.88L186.347 888.951Z"/><path fill="#8D99AE" d="M186.347 888.951L186.517 889.88C170.988 901.212 171.876 921.505 189.099 930.398L187.992 931.068C170.392 923.976 169.961 898.773 186.347 888.951Z"/><path fill="#41464E" d="M189.044 897.533C202.73 897.204 206.079 916.053 194.338 923.577C180.329 923.527 177.547 902.69 189.044 897.533Z"/><path fill="#8C8A85" d="M95.9375 587.617C113.652 598.953 125.153 604.871 146.81 605.444C145.925 609.665 142.571 630.108 141.714 632.286L139.501 632.902C118.937 634.443 106.513 630.868 88.1959 621.437C90.6159 610.121 93.0808 598.831 95.9375 587.617Z"/><path fill="#41464E" d="M124.643 264.587C143.695 265.884 153.463 300.473 144.141 315.053C141.475 319.223 137.562 320.702 132.88 321.507C118.915 319.211 112.265 306.766 109.581 294.169C106.823 281.226 109.912 267.472 124.643 264.587Z"/><path fill="#2B2D42" d="M123.321 268.518C142.081 267.975 152.912 315.739 134.333 318.211C119.398 317.114 108.596 289.03 114.643 276.402C116.983 271.515 118.677 270.39 123.321 268.518Z"/><path fill="#B1B1B1" d="M125.921 274.824C131.924 274.889 134.486 281.36 136.211 286.479C138.442 293.099 140.225 302.866 137.899 309.623C137.666 310.299 136.884 310.257 136.208 310.419C125.091 305.736 116.805 284.226 125.921 274.824Z"/><path fill="#8C8A85" d="M145.447 474.374C156.46 484.586 169.272 492.581 183 498.55C181.029 502.28 169.087 528.607 168.252 529.168L166.847 528.856C149.067 521.428 141.537 515.993 127.365 503.75C132.407 494.314 139.282 483.138 145.447 474.374Z"/><path fill="#8C8A85" d="M425.412 699.375C427.351 700.9 432.568 722.096 433.66 726.193C419.69 739.016 403.28 742.267 385.169 738.629L380.385 737.088C378.222 729.497 376.636 721.793 374.325 713.901C392.72 713.125 409.758 709.907 425.412 699.375Z"/><path fill="#8C8A85" d="M449.46 828.044C451.342 830.82 449.941 855.492 449.5 859.871C440.18 868.352 431.402 871.097 418.991 869.355C414.148 862.48 411.674 859.182 404.883 854.398C401.09 852.533 399.179 851.906 395.142 850.923C395.067 844.299 394.794 838.088 394.449 831.47C416.283 839.719 429.568 841.934 449.46 828.044Z"/><path fill="#EDF2F4" d="M179.014 518.754L179.598 519.29C179.862 520.453 171.887 559.502 171.07 564.178C165.401 596.628 162.844 626.029 163.029 658.924C158.35 657.311 154.76 657.196 150.887 655.998C149.204 653.656 147.881 651.302 147.147 648.491C141.965 628.618 168.14 537.614 179.014 518.754Z"/><path fill="#EDF2F4" d="M169.462 666.434C188.657 672.866 201.673 675.89 221.665 679.777C222.242 693.771 222.859 707.849 222.715 721.85C205.907 710.566 188.298 696.97 171.838 684.886C172.938 677.145 173.075 673.47 169.462 666.434Z"/><path fill="#8C8A85" d="M232.68 718.286C248.48 723.25 266.815 722.123 282.758 718.337C282.877 722.526 284.481 746.211 282.49 748.483C278.263 750.264 274.303 752.054 270.146 753.98C258.71 747.475 243.32 736.67 232.435 728.969C232.467 725.418 232.586 721.838 232.68 718.286Z"/><path fill="#41464E" d="M173.054 930.105C173.337 930.081 174.287 930.225 174.612 930.264C185.023 944.542 202.901 943.763 217.629 937.788C217.684 947.292 218.006 950.049 223.018 958.176C216.577 957.978 211.876 957.46 205.608 956.542C188.681 953.933 168.788 952.028 151.513 949.891C151.611 946.009 150.557 938.729 150.953 936.554C154.011 934.12 168.15 931.311 173.054 930.105Z"/><path fill="#41464E" d="M365.148 910.088L366.889 910.095L368.529 911.745C376.138 919.626 386.637 920.147 396.914 919.2C399.442 918.967 402.606 917.23 405.012 917.252C404.03 922.656 404.345 932.044 404.358 937.785C400.163 936.595 394.498 936.019 390.104 935.494C380.745 934.195 365.613 932.556 356.831 930.74C353.952 927.281 347.525 918.328 345.197 914.585C351.965 913.172 358.426 911.71 365.148 910.088Z"/><path fill="#8D99AE" d="M152.108 661.569C165.195 661.016 168.255 671.226 167.973 682.22C164.338 678.941 160.838 675.252 157.143 672.184C140.363 678.497 128.922 696.158 126.111 713.383C125.751 716.721 125.879 728.387 124.507 729.863L123.642 729.668C115.22 721.499 116.644 701.63 121.142 691.613C126.915 678.755 137.672 664.897 152.108 661.569Z"/><path fill="#454747" d="M420.35 681.16C421.537 680.898 421.453 680.88 422.624 681.186C424.059 683.064 425.377 690.581 423.234 692.468C419.309 695.925 414.34 697.263 409.49 699.191C396.993 704.159 385.622 705.878 372.255 706.149C369.486 700.86 368.455 694.042 367.458 688.203C375.161 687.299 382.998 686.859 390.693 685.908C400.624 684.681 410.473 682.795 420.35 681.16Z"/><path fill="#8D99AE" d="M65.9037 608.552C75.1916 607.966 77.3117 609.507 84.7801 614.781C83.9336 619.315 82.9172 623.756 81.9089 628.253C76.8727 622.572 66.5258 615.856 60.9283 625.526C54.9929 635.779 66.3765 644.124 74.805 648.367L75.6743 649.036C76.3285 651.183 72.639 658.437 71.5374 660.913C62.7926 657.154 51.6134 648.306 49.0004 638.871C44.954 624.258 51.7722 612.779 65.9037 608.552Z"/><path fill="#41464E" d="M167.513 321.356C165.778 321.631 161.222 323.565 159.452 324.231C147.914 328.574 136.234 334.537 123.909 329.28C112.943 324.558 106.369 314.219 102.081 303.491C95.6622 287.435 94.731 264.425 114.402 257.326C117.997 256.029 121.942 255.463 125.497 257.156C119.713 261.78 113.21 260.761 108.334 269.025C98.0313 286.489 107.401 315.256 124.407 325.228C134.534 331.167 148.169 327.462 153.647 316.627C157.615 318.205 163.433 320.366 167.513 321.356Z"/><path fill="#6F6866" d="M214.246 460.839C214.436 461.031 214.626 461.224 214.816 461.416C226.769 479.794 227.297 500.363 200.385 496.854C197.398 496.583 194.705 495.761 191.809 494.991C198.018 484.276 206.729 470.59 214.246 460.839Z"/><path fill="#8D99AE" d="M185.152 59.4248C192.679 57.5402 200.301 62.1457 202.133 69.6856C203.966 77.2255 199.307 84.8152 191.755 86.595C184.276 88.3575 176.777 83.7546 174.962 76.2883C173.148 68.8221 177.699 61.2909 185.152 59.4248Z"/><path fill="#8D99AE" d="M383.598 860.745C401.84 858.375 408.676 871.971 416.617 885.606C412.473 892.21 410.218 896.575 407.223 903.669C402.52 906.358 398.379 907.465 393.12 908.372C387.787 909.311 384.88 909.12 379.519 908.773C387.176 908.219 394.77 905.024 397.797 897.701C404.869 880.592 398.401 868.609 383.367 861.278L383.598 860.745Z"/><path fill="#8C8A85" d="M437.764 417.701L438.75 417.779C445.961 429.169 445.218 458.684 444.429 472.505C441.297 472.994 437.848 473.283 434.67 473.608C434.009 472.315 434.708 464.008 434.865 461.958C435.999 447.086 432.422 433.662 427.668 419.572C431.42 418.623 433.908 418.236 437.764 417.701Z"/><path fill="#8C8A85" d="M317.597 361.071L318.363 361.091C319.404 362.248 321.568 372.975 322.101 375.297C293.881 368.321 272.996 374.269 248.741 388.407L247.752 388.838C245.641 387.405 243.346 379.036 242.383 376.116C244.911 375.773 247.598 375.516 250.144 375.281C273.307 373.142 295.396 367.79 317.597 361.071Z"/><path fill="#41464E" d="M373.752 870.059C390.305 869 394.923 890.227 382.994 898.106C381.299 898.697 379.329 899.112 377.567 899.534L373.277 897.564L372.303 896.201C367.136 888.832 365.297 875.758 373.752 870.059Z"/><path fill="#EDF2F4" d="M70.5195 625.021C74.6245 626.129 78.2509 630.093 81.4047 633.049C80.5248 635.879 79.3938 643.267 77.4572 644.945L76.2946 644.751C68.8046 640.613 54.8098 629.57 70.5195 625.021Z"/><path fill="#6F6866" d="M168.058 433.167C170.011 433.096 170.076 432.73 171.183 433.674C170.395 435.306 154.142 453.319 151.847 456.111L150.95 457.11L150.232 457.009C149.905 456.402 149.547 455.726 149.479 455.017C148.327 443.059 156.74 435.354 168.058 433.167Z"/><path fill="#8C8A85" d="M221.325 784.805L221.712 785.119C224.348 787.278 247.415 806.378 247.562 807.786C237.05 805.615 228.445 800.917 220.201 794.083C220.653 791.099 220.975 787.828 221.325 784.805Z"/><path fill="#B1B1B1" d="M225.021 893.381C235.886 896.416 242.814 896.816 254.176 895.415L247.239 899.051C242.663 901.239 235.348 903.962 230.483 905.946C228.692 902.707 226.468 896.914 225.021 893.381Z"/><path fill="#8C8A85" d="M282.921 755.532C283.184 757.233 282.989 761.427 282.956 763.343L278.894 760.49L275.131 758.3C277.56 757.575 280.496 756.414 282.921 755.532Z"/><path fill="#8C8A85" d="M422.618 875.388C425.535 875.84 428.155 875.683 430.994 876.269L430.393 876.774C428.708 877.561 427.347 878.355 425.513 878.603C423.661 877.715 423.951 877.433 422.618 875.388Z"/><path fill="#EDF2F4" d="M573.381 366.286C567.45 351.389 562.977 335.023 557.167 319.865C541.722 279.566 526.054 239.299 502.714 202.781C501.945 201.577 501.69 199.168 501.829 197.665C505.669 193.081 519.728 187.164 525.626 184.157C577.197 157.864 628.044 130.378 680.449 105.737C730.64 82.1382 783.467 58.5299 839.246 52.9896C855.425 51.4303 883.464 51.2457 898.633 55.9411C902.445 61.2639 904.934 67.7453 907.627 73.6989C916.673 93.6996 924.071 113.903 930.509 134.893C965.174 247.907 992.401 412.578 973.145 529.212C970.52 545.112 966.515 563.147 958.566 577.266C955.337 583.001 950.495 587.689 946 592.425C932.899 606.231 919.341 618.754 903.851 629.852C854.251 665.389 797.142 691.374 737.34 703.928C722.295 707.087 706.124 710.443 690.761 707.939C675.828 705.505 662.103 695.59 653.481 683.377C631.816 652.685 621.825 577.419 615.086 538.42C611.909 520.029 608.24 501.753 604.581 483.453C602.596 473.522 600.487 463.617 598.132 453.767C597.133 449.59 596.31 444.928 594.79 440.918C593.331 429.488 586.642 411.286 586.245 399.62C586.155 396.97 590.709 393.315 593.084 391.694C597.315 389.211 609.421 381.921 613.813 380.575C615.083 379.778 616.502 379.12 617.849 378.448L618.08 377.257C627.073 373.471 631.555 367.944 633.552 358.509C630.068 344.446 619.445 348.196 609.532 352.896C608.138 353.615 605.68 354.701 604.119 354.773C597.503 356.749 590.661 360.353 583.833 362.682C581.108 363.645 575.994 365.629 573.381 366.286Z"/><path fill="#6F6866" d="M573.381 366.286C567.45 351.389 562.977 335.023 557.167 319.865C541.722 279.566 526.054 239.299 502.714 202.781C501.945 201.577 501.69 199.168 501.829 197.665C505.669 193.081 519.728 187.164 525.626 184.157C577.197 157.864 628.044 130.378 680.449 105.737C730.64 82.1382 783.467 58.5299 839.246 52.9896C855.425 51.4303 883.464 51.2457 898.633 55.9411C902.445 61.2639 904.934 67.7453 907.627 73.6989C916.673 93.6996 924.071 113.903 930.509 134.893C965.174 247.907 992.401 412.578 973.145 529.212C970.52 545.112 966.515 563.147 958.566 577.266C955.337 583.001 950.495 587.689 946 592.425C932.899 606.231 919.341 618.754 903.851 629.852C854.251 665.389 797.142 691.374 737.34 703.928C722.295 707.087 706.124 710.443 690.761 707.939C675.828 705.505 662.103 695.59 653.481 683.377C631.816 652.685 621.825 577.419 615.086 538.42C611.909 520.029 608.24 501.753 604.581 483.453C602.596 473.522 600.487 463.617 598.132 453.767C597.133 449.59 596.31 444.928 594.79 440.918C593.331 429.488 586.642 411.286 586.245 399.62C586.155 396.97 590.709 393.315 593.084 391.694C595.261 401.295 599.456 413.4 602.311 423.171C623.719 496.45 628.843 573.039 648.866 646.378C658.651 682.216 681.63 705.337 720.301 694.651C735.996 690.314 749.487 676.078 756.866 661.985C738 668.983 705.601 684.479 687.528 669.429C671.887 656.404 665.104 620.946 660.541 601.585C659.97 599.164 659.789 595.327 662.937 594.897C664.063 595.734 665.079 597.093 665.422 598.541C669.606 616.244 676.021 653.721 690.709 665.034C710.216 680.058 739.063 659.793 759.637 656.131C762.401 648.574 764.405 642.903 766.075 634.928C754.976 638.428 743.989 642.51 733.086 646.584C727.391 648.712 721.574 651.283 715.731 652.921C714.099 653.379 712.248 653.894 710.546 653.586C709.934 653.475 709.906 653.465 709.606 652.941C706.979 648.345 712.599 625.819 714.116 619.636C716.927 608.184 720.822 596.999 730.614 589.654C769.537 560.459 889.843 611.581 936.013 583.13C951.75 573.432 955.228 556.308 959.132 539.523C984.574 430.122 952.154 237.4 917.542 131.198C911.126 111.512 901.829 82.9408 891.149 65.784C821.141 50.9085 731.593 93.383 669.934 122.981C618.2 147.815 566.754 175.662 515.421 201.643C541.758 245.068 560.282 295.565 577.422 343.248C579.728 349.664 581.867 356.153 583.833 362.682C581.108 363.645 575.994 365.629 573.381 366.286Z"/><path fill="#DDD5D1" d="M770.199 592.038C816.444 591.18 877.146 609.376 920.701 600.932C916.538 605.511 910.449 609.822 905.586 613.679C889.938 626.087 873.518 636.114 856.237 646.135C821.988 665.425 791.106 677.477 753.466 688.005C760.559 680.062 765.782 672.575 769.73 662.622C778.522 640.457 784.156 613.154 770.199 592.038Z"/><path fill="#EDF2F4" d="M747.675 594.164C764.028 595.4 767.428 609.52 767.536 623.222C757.703 627.247 746.786 630.918 736.71 634.565C732.582 635.798 725.704 638.571 721.575 640.125C724.106 623.543 726.906 596.993 747.675 594.164Z"/><path fill="#6F6866" d="M576.383 199.542C588.85 191.052 694.611 135.727 702.723 136.491C704.059 136.616 704.515 136.927 705.4 137.893L705.288 139.455C704.565 140.562 702.386 141.684 701.155 142.251C671.446 156.006 641.612 169.939 612.745 185.399C603.392 190.408 588.832 197.284 580.676 203.797C589.927 217.995 582.256 231.022 566.162 233.573C578.728 260.591 588.066 291.658 598.611 319.657C602.665 330.423 605.346 341.989 609.532 352.896C608.138 353.615 605.68 354.701 604.119 354.773C603.248 349.631 596.452 330.077 594.496 324.306C588.166 305.638 581.137 286.561 574.328 268.014C570.05 256.364 564.829 244.55 560.839 232.837C536.083 218.315 552.016 186.556 576.383 199.542Z"/><path fill="#EDF2F4" d="M565.331 203.68C568.941 202.973 572.651 204.272 575.032 207.076C577.413 209.88 578.094 213.751 576.812 217.199C575.531 220.647 572.487 223.134 568.853 223.702C563.38 224.557 558.229 220.874 557.27 215.418C556.31 209.963 559.895 204.743 565.331 203.68Z"/><path fill="#6F6866" d="M613.813 380.575C615.083 379.778 616.502 379.12 617.849 378.448L618.08 377.257C619.262 380.308 620.035 383.321 620.953 386.445C627.13 407.476 632.656 428.623 637.905 449.906L644.079 476.006C645.089 480.157 651.725 501.781 647.178 503.316C642.702 501.512 643.19 495.631 642.187 491.369L632.777 451.486C627.706 430.635 622.324 409.958 616.259 389.376C615.404 386.476 614.533 383.509 613.813 380.575Z"/><path fill="#6F6866" d="M739.742 155.925C745.427 156.362 749.851 160.252 754.503 163.164C783.083 181.059 813.67 184.653 846.045 176.405C852.806 174.683 859.65 172.943 866.362 170.855C868.567 170.17 870.354 170.614 872.203 171.899C875.925 178.719 879.602 217.654 881.139 228.217C885.147 257.748 887.895 287.849 890.429 317.455C893.613 349.993 890.277 383.419 858.557 400.538C838.587 411.316 822.744 417.628 815.522 440.581C811.304 453.989 806.181 455.365 796.496 445.222C771.9 420.114 725.891 446.762 699.028 422.956C681.722 407.619 672.674 383.268 665.129 361.948C651.403 323.161 639.648 283.31 628.709 243.7C627.773 240.313 635.897 239.32 637.925 238.712C676.064 230.387 711.729 208.933 730.46 173.666C732.93 169.033 736.634 159.242 739.742 155.925Z"/><path fill="#DDD5D1" d="M745.53 169.01C748.605 171.431 752.557 173.966 755.953 175.891C794.817 197.917 824.484 192.62 864.137 182.199C868.415 222.773 875.45 263.861 878.117 304.805C879.16 320.814 881.421 340.577 878.216 356.129C868.354 403.987 820.727 387.633 804.849 436.892C800.235 432.887 797.63 431.117 792.243 428.258C784.924 425.193 778.799 423.638 770.849 422.829C751.934 420.905 727.224 427.013 710.211 417.041C702.709 412.643 696.405 404.661 692.333 397.153C678.042 370.801 669.342 340.726 660.549 312.244C654.007 291.051 647.111 270.264 641.604 248.852C645.272 247.807 649.059 246.871 652.74 245.83C681.458 237.705 708.952 222.46 727.2 198.321C735.354 187.536 739.055 180.577 745.53 169.01Z"/><path fill="#6F6866" d="M751.212 197.705C755.834 198.212 759.428 202.085 763.552 203.921C788.406 214.99 816.788 216.275 843.13 210.354C844.624 210.018 846.178 210.086 847.354 210.993C851.753 220.111 858.797 303.716 860.221 319.579C860.633 324.17 860.807 336.6 860.581 341.8C859.263 372.068 835.173 375.164 814.399 389.383C804.84 395.926 803.257 400.397 796.009 407.05C792.791 406.382 788.813 404.899 785.623 403.814C780.041 402.377 777.795 401.992 771.943 401.596C755.445 400.478 733.979 404.609 719.498 395.53C715.67 393.13 709.411 383.523 707.475 379.394C694.202 351.073 684.835 320.572 675.743 290.679C673.218 282.381 670.49 273.726 668.399 265.331C668.123 264.22 667.778 262.287 668.746 261.777C671.73 260.26 675.37 260.133 678.539 259.247C704.903 251.878 726.863 235.055 741.963 212.339C745.139 207.56 747.939 202.245 751.212 197.705Z"/><path fill="#EDF2F4" d="M753.473 204.016C781.496 220.758 812.536 221.816 843.8 215.646C846.867 239.339 849.648 263.496 851.857 287.566C853.585 306.4 857.461 330.393 854.386 349.025C853.318 355.492 847.426 363.552 841.827 367.153C824.575 378.25 807.192 383.489 794.66 401.304C790.89 399.953 787.712 398.888 783.868 397.782C766.195 393.179 741.348 399.798 725.208 392.759C713.061 387.462 702.104 353.417 697.78 341.426C688.848 316.651 681.393 291.027 673.84 265.86C710.223 257.259 735.155 236.295 753.473 204.016Z"/><path fill="#6F6866" d="M816.848 231.731C820.449 232.68 830.016 245.776 833.991 248.614C835.277 249.532 837.993 251.951 839.161 253.03C837.932 256.016 836.447 259.15 834.936 262.01C815.623 298.574 794.969 334.423 773.089 369.51C771.117 372.671 770.14 376.166 765.831 375.744C763.047 372.45 751.028 346.415 747.832 340.195C740.71 325.758 732.693 310.858 725.98 296.401C729.135 292.988 732.721 289.481 735.973 286.097C739.394 282.537 744.162 276.31 747.913 273.689L748.893 273.899C752.89 277.474 767.209 304.208 771.046 310.739C782.704 292.105 792.957 270.356 804.69 251.529C807.597 246.864 813.308 235.113 816.848 231.731Z"/><path fill="#8D99AE" d="M817.582 239.254C817.891 239.381 831.036 252.629 832.987 254.378C831.462 257.835 829.359 261.384 827.635 264.797C809.6 300.514 788.12 334.134 768.199 368.757C762.169 358.686 753.546 340.251 747.95 329.23C742.661 318.375 737.499 307.89 731.834 297.223C738.683 291.652 741.937 287.397 747.708 280.667C752.323 287.29 755.744 295.132 759.928 302.023C762.316 305.955 767.501 317.824 771.347 318.814C772.62 318.155 773.595 316.693 774.32 315.46C789.058 290.406 802.442 264.045 817.582 239.254Z"/><path fill="#6F6866" d="M871.151 78.1033C883.534 76.7336 892.644 87.2462 890.646 99.4587C890.308 101.522 888.984 103.769 887.98 105.625C921.563 185.932 936.03 279.118 946.434 365.297C946.737 367.806 946.64 370.727 944.939 372.719C943.211 373.098 944.056 373.161 942.337 372.358C941.135 371.108 940.88 369.84 940.714 368.118C938.203 342.088 934.648 316.41 930.445 290.602C923.311 244.874 913.179 200.03 899.941 155.679C895.224 139.874 889.385 124.55 883.453 109.179C870.428 113.689 863.624 108.663 859.647 96.4266C836.696 96.3561 811.443 102.659 789.268 108.047C786.988 108.601 785.959 108.196 784.178 106.837C783.566 102.792 795.88 100.568 798.799 99.7788C818.446 94.4678 839.104 91.4554 859.378 89.9901C862.168 83.0916 864.303 80.5667 871.151 78.1033Z"/><path fill="#EDF2F4" d="M872.552 85.5221C884.452 84.8382 886.86 99.0629 876.462 103.037C864.859 102.258 862.385 90.6655 872.552 85.5221Z"/><path fill="#6F6866" d="M911.131 459.167C913.834 459.403 915.117 460.747 914.78 463.594C912.803 467.62 904.875 468.352 900.732 469.427C873.477 476.495 846.754 487.212 820.651 497.67C809.514 502.132 798.76 507.59 787.619 511.569C787.131 511.57 786.739 511.596 786.247 511.475C785.07 511.186 783.957 510.438 783.472 509.291C783.068 508.337 783.147 507.298 783.684 506.415C787.203 500.614 865.865 471.441 877.27 467.761C888 464.299 899.93 460.475 911.131 459.167Z"/><path fill="#6F6866" d="M912.588 507.603C913.172 507.53 914.35 507.597 914.989 507.61C916.636 508.52 916.625 508.426 917.712 510.09C917.803 510.882 918.014 511.406 917.678 512.025C915.898 515.298 901.122 518.682 897.245 519.856C862.267 530.445 829.73 545.076 796.124 558.686C795.414 558.837 794.832 558.756 794.078 558.74C792.463 557.886 792.471 557.979 791.411 556.369C791.355 555.133 791.326 554.723 792.101 553.652C797.255 546.52 875.131 518.455 887.374 514.446C895.681 511.727 904.077 509.579 912.588 507.603Z"/><path fill="#6F6866" d="M948.778 466.399C950.647 466.38 954.122 466.186 954.138 468.702C954.293 492.764 950.059 517.54 944.248 540.866C942.976 545.972 941.667 551.956 939.354 556.086C937.525 556.375 936.914 556.456 935.359 555.588C933.63 552.174 938.11 540.996 939.295 536.018C942.704 521.694 945 509.018 946.527 494.467C947.138 488.644 947.575 470.136 948.778 466.399Z"/><path fill="#6F6866" d="M656.292 536.524C671.455 536.873 672.094 555.784 658.686 560.624C649.138 560.488 643.798 555.274 646.881 544.992C648.263 540.383 652.06 538.259 656.292 536.524Z"/><path fill="#DDD5D1" d="M656.49 542.041C666.501 542.373 663.991 551.342 657.645 555.474C648.97 556.094 649.279 546.241 656.49 542.041Z"/><path fill="#6F6866" d="M946.202 421.047C959.32 420.004 958.283 438.761 949.539 445.222C937.951 446.638 936.862 427.584 946.202 421.047Z"/><path fill="#8C8A85" d="M947.977 427.168C951.824 429.054 950.284 434.987 948.728 437.96C944.303 437.977 946.753 429.481 947.977 427.168Z"/><path fill="#6F6866" d="M744.956 111.045C748.865 110.747 752.356 111.195 755.645 113.508C758.66 115.628 761.905 119.547 758.971 123.041C753.362 124.799 751.62 115.513 740.468 121.123L739.877 121.427C735.721 124.562 734.772 129.143 730.392 130.138C729.501 129.881 728.576 129.671 728.378 128.585C726.554 118.592 738.063 112.992 744.956 111.045Z"/></svg>